<?xml version="1.0" encoding="iso-8859-1"?>
<!-- Generator: Adobe Illustrator 19.0.0, SVG Export Plug-In . SVG Version: 6.00 Build 0)  -->
<svg version="1.1" id="Layer_1" xmlns="http://www.w3.org/2000/svg" xmlns:xlink="http://www.w3.org/1999/xlink" x="0px" y="0px"
	 viewBox="0 0 408.759 408.759" style="enable-background:new 0 0 408.759 408.759;" xml:space="preserve">
<g>
	<path style="fill:#FFBE00;" d="M204.385,408.759c-58.121,0-113.674-24.869-152.417-68.227
		C18.46,303.057,0.005,254.703,0.005,204.379C0.005,91.683,91.689,0,204.385,0c50.317,0,98.674,18.453,136.164,51.964
		c43.346,38.763,68.205,94.314,68.205,152.415C408.755,317.074,317.075,408.759,204.385,408.759"/>
	<path style="fill:#F4502A;" d="M377.757,204.377c0,15.999-2.17,31.5-6.231,46.21c-0.53,1.909-1.09,3.81-1.679,5.689
		c-10.731,34.27-31.821,63.959-59.591,85.41c-8.011,6.181-16.57,11.68-25.611,16.409c-7.54,3.952-15.41,7.361-23.559,10.171
		c-12.42,4.301-25.48,7.22-38.99,8.588c-0.12,0.011-0.231,0.022-0.331,0.032c-5.721,0.58-11.51,0.87-17.38,0.87
		c-0.691,0-1.379,0-2.059-0.021c-50.572-0.58-95.93-22.82-127.242-57.86c-0.259-0.29-0.519-0.589-0.789-0.879
		c-26.951-30.562-43.29-70.679-43.29-114.62c0-95.751,77.619-173.381,173.379-173.381c43.95,0,84.069,16.35,114.631,43.29
		c0.29,0.27,0.589,0.53,0.879,0.791C355.408,106.836,377.757,152.987,377.757,204.377"/>
	<path style="fill:#C29100;" d="M74.313,319.014c3.958,4.485,8.139,8.76,12.535,12.814c-4.11-3.792-8.036-7.782-11.762-11.952
		C74.833,319.591,74.577,319.298,74.313,319.014 M71.654,315.928c0.019,0.023,0.044,0.052,0.063,0.075
		C71.697,315.978,71.675,315.953,71.654,315.928 M71.267,315.466c0.044,0.053,0.09,0.108,0.134,0.161
		C71.355,315.571,71.313,315.521,71.267,315.466 M70.924,315.054c0.079,0.095,0.153,0.184,0.232,0.279
		C71.08,315.241,71,315.146,70.924,315.054 M70.584,314.644c0.086,0.104,0.171,0.207,0.257,0.311
		C70.756,314.851,70.67,314.748,70.584,314.644 M120.203,52.769C66.998,82.371,31.006,139.166,31.006,204.37
		c0,41.879,14.84,80.287,39.559,110.25c-24.719-29.969-39.557-68.37-39.557-110.243C31.008,139.173,66.998,82.375,120.203,52.769"/>
	<path style="fill:#BA3D20;" d="M204.385,30.999c-30.55,0-59.256,7.901-84.182,21.77c-53.205,29.606-89.196,86.405-89.196,151.608
		c0,41.873,14.837,80.274,39.557,110.243c0.006,0.007,0.014,0.017,0.02,0.024c0.086,0.104,0.171,0.207,0.257,0.311
		c0.027,0.033,0.056,0.067,0.083,0.1c0.076,0.092,0.156,0.187,0.232,0.279c0.037,0.044,0.074,0.089,0.111,0.133
		c0.046,0.056,0.088,0.105,0.134,0.161c0.085,0.102,0.168,0.2,0.253,0.301c0.021,0.025,0.042,0.05,0.063,0.075
		c0.854,1.014,1.719,2.018,2.596,3.011c0.264,0.285,0.52,0.578,0.773,0.862c3.727,4.17,7.653,8.16,11.762,11.952
		c1.835,1.692,3.709,3.348,5.616,4.961c-25.53-30.2-40.919-69.239-40.919-111.879c0-95.751,77.619-173.371,173.379-173.371
		c42.629,0,81.68,15.39,111.87,40.921C305.004,54.869,257.485,30.999,204.385,30.999"/>
	<path style="fill:#C29100;" d="M285.322,357.74c-0.078,0.042-0.156,0.083-0.235,0.124
		C285.163,357.824,285.245,357.781,285.322,357.74 M285.802,357.485c-0.092,0.049-0.185,0.099-0.278,0.148
		C285.617,357.584,285.708,357.535,285.802,357.485 M286.259,357.241c-0.1,0.054-0.201,0.107-0.301,0.161
		C286.058,357.349,286.158,357.295,286.259,357.241 M286.718,356.994c-0.111,0.06-0.223,0.12-0.334,0.18
		C286.493,357.115,286.608,357.054,286.718,356.994 M287.162,356.753c-0.121,0.066-0.243,0.132-0.364,0.198
		C286.92,356.885,287.04,356.819,287.162,356.753 M307.732,343.599c-6.508,4.836-13.363,9.229-20.532,13.133
		C294.365,352.831,301.223,348.438,307.732,343.599 M318.331,335.054c-0.008,0.007-0.019,0.017-0.027,0.024
		C318.314,335.069,318.321,335.063,318.331,335.054 M318.734,334.701c-0.018,0.015-0.037,0.032-0.054,0.047
		C318.696,334.734,318.718,334.715,318.734,334.701 M319.597,333.938c-0.042,0.037-0.086,0.077-0.128,0.114
		C319.512,334.014,319.554,333.977,319.597,333.938 M319.972,333.603c-0.049,0.044-0.097,0.086-0.146,0.131
		C319.875,333.69,319.923,333.647,319.972,333.603 M320.334,333.278c-0.049,0.044-0.1,0.09-0.149,0.134
		C320.234,333.368,320.285,333.323,320.334,333.278 M320.859,332.803c-0.093,0.085-0.187,0.17-0.281,0.254
		C320.673,332.973,320.766,332.889,320.859,332.803 M321.216,332.479c-0.076,0.069-0.152,0.138-0.227,0.208
		C321.064,332.617,321.141,332.547,321.216,332.479 M321.555,332.168c-0.08,0.074-0.158,0.145-0.238,0.218
		C321.397,332.314,321.476,332.241,321.555,332.168 M322.463,331.329c-0.283,0.264-0.569,0.528-0.854,0.79
		C321.895,331.856,322.179,331.594,322.463,331.329 M334.218,319.28c-3.719,4.2-7.637,8.216-11.742,12.038
		C326.58,327.497,330.499,323.479,334.218,319.28 M335.021,318.366c-0.262,0.3-0.527,0.601-0.79,0.899
		C334.496,318.966,334.758,318.667,335.021,318.366 M335.269,318.082c-0.076,0.087-0.152,0.175-0.228,0.262
		C335.116,318.257,335.193,318.169,335.269,318.082 M335.565,317.74c-0.074,0.086-0.147,0.169-0.221,0.255
		C335.418,317.91,335.491,317.826,335.565,317.74 M336.104,317.113c-0.163,0.19-0.328,0.382-0.492,0.572
		C335.776,317.495,335.941,317.304,336.104,317.113 M336.302,316.882c-0.064,0.075-0.126,0.148-0.19,0.223
		C336.176,317.029,336.238,316.958,336.302,316.882 M336.598,316.535c-0.058,0.068-0.116,0.136-0.174,0.205
		C336.483,316.67,336.539,316.604,336.598,316.535 M336.897,316.181c-0.054,0.063-0.109,0.129-0.163,0.192
		C336.789,316.309,336.842,316.246,336.897,316.181 M337.294,315.709c-0.059,0.071-0.119,0.142-0.178,0.212
		C337.174,315.852,337.235,315.779,337.294,315.709 M337.602,315.34c-0.038,0.046-0.075,0.09-0.114,0.136
		C337.528,315.43,337.563,315.387,337.602,315.34 M337.909,314.971c-0.033,0.04-0.065,0.078-0.098,0.118
		C337.845,315.049,337.876,315.011,337.909,314.971 M338.573,314.166c-0.012,0.015-0.024,0.03-0.036,0.044
		C338.549,314.195,338.561,314.18,338.573,314.166 M338.899,313.767c-0.012,0.015-0.023,0.028-0.035,0.043
		C338.876,313.794,338.887,313.782,338.899,313.767 M369.69,256.779c-0.004,0.013-0.008,0.026-0.012,0.039
		C369.682,256.804,369.686,256.792,369.69,256.779"/>
	<path style="fill:#BA3D20;" d="M153.287,260.466v31.86h31.86L153.287,260.466 M215.378,94.436l-14.11,156.701l-34.102-10.521
		l51.711,51.709h36.589v-31.86h22.001v40.88l0,0c0,7.159-5.809,12.98-12.98,12.98H144.266c-3.338,0-6.382-1.262-8.682-3.334
		l66.743,66.743c0.68,0.021,1.368,0.021,2.059,0.021c5.87,0,11.66-0.29,17.38-0.87c0.1-0.009,0.211-0.021,0.331-0.032
		c13.51-1.368,26.569-4.288,38.99-8.588c8.149-2.811,16.019-6.22,23.559-10.171c0.148-0.077,0.293-0.153,0.44-0.231
		c0.078-0.041,0.156-0.083,0.235-0.124c0.069-0.036,0.134-0.07,0.202-0.107c0.092-0.049,0.185-0.099,0.278-0.148
		c0.052-0.027,0.104-0.056,0.156-0.083c0.1-0.054,0.201-0.107,0.301-0.161c0.042-0.022,0.083-0.044,0.124-0.067
		c0.111-0.06,0.223-0.12,0.334-0.18c0.027-0.015,0.053-0.029,0.08-0.043c0.121-0.065,0.243-0.132,0.364-0.198
		c0.012-0.006,0.025-0.014,0.038-0.021c7.169-3.904,14.024-8.297,20.532-13.133c3.635-2.703,7.164-5.548,10.572-8.521
		c0.008-0.007,0.019-0.017,0.027-0.024c0.116-0.102,0.232-0.203,0.349-0.305c0.018-0.016,0.037-0.032,0.054-0.047
		c0.246-0.217,0.49-0.431,0.735-0.649c0.042-0.037,0.086-0.077,0.128-0.114c0.076-0.067,0.153-0.136,0.229-0.204
		c0.049-0.044,0.097-0.086,0.146-0.131c0.07-0.063,0.143-0.128,0.213-0.19c0.049-0.044,0.1-0.09,0.149-0.134
		c0.082-0.074,0.163-0.147,0.245-0.221c0.094-0.084,0.187-0.169,0.281-0.254c0.043-0.039,0.087-0.079,0.129-0.117
		c0.076-0.069,0.152-0.138,0.227-0.208c0.035-0.032,0.066-0.061,0.101-0.092c0.081-0.073,0.158-0.144,0.238-0.218
		c0.018-0.017,0.036-0.033,0.054-0.05c0.285-0.262,0.571-0.526,0.854-0.79c0.004-0.003,0.009-0.008,0.013-0.012
		c4.105-3.821,8.023-7.838,11.742-12.038c0.004-0.004,0.009-0.011,0.013-0.015c0.264-0.298,0.529-0.6,0.79-0.899
		c0.005-0.006,0.014-0.016,0.019-0.022c0.076-0.087,0.153-0.175,0.228-0.262c0.025-0.029,0.05-0.057,0.075-0.086
		c0.074-0.085,0.147-0.169,0.221-0.255c0.016-0.019,0.031-0.037,0.048-0.055c0.164-0.189,0.329-0.381,0.492-0.572
		c0.002-0.002,0.006-0.006,0.007-0.008c0.064-0.075,0.127-0.148,0.19-0.223c0.039-0.046,0.082-0.096,0.122-0.143
		c0.058-0.068,0.116-0.136,0.174-0.205c0.045-0.053,0.092-0.108,0.136-0.161c0.054-0.063,0.109-0.129,0.163-0.192
		c0.073-0.086,0.146-0.173,0.218-0.259c0.059-0.071,0.119-0.142,0.178-0.212c0.066-0.078,0.13-0.154,0.195-0.233
		c0.038-0.046,0.075-0.09,0.114-0.136c0.069-0.083,0.141-0.168,0.209-0.251c0.033-0.04,0.065-0.078,0.098-0.118
		c0.209-0.253,0.419-0.507,0.627-0.761c0.012-0.015,0.024-0.03,0.036-0.044c0.096-0.118,0.195-0.238,0.291-0.356
		c0.012-0.015,0.023-0.028,0.035-0.043c13.584-16.688,24.126-35.955,30.779-56.949c0.004-0.013,0.008-0.026,0.012-0.039
		c0.053-0.167,0.106-0.335,0.158-0.502c0.589-1.88,1.149-3.78,1.679-5.689L215.378,94.436"/>
	<polygon style="fill:#FFFFFF;" points="204.38,277.928 167.168,240.617 193.38,240.617 193.38,94.438 215.38,94.438 
		215.38,240.617 241.592,240.617 	"/>
	<path style="fill:#1CA4BA;" d="M277.467,260.466v40.88c0,7.159-5.809,12.98-12.98,12.98H144.266c-7.169,0-12.98-5.821-12.98-12.98
		v-40.88h22.001v31.86h102.179v-31.86H277.467"/>
	<path style="fill:#157D8E;" d="M277.467,260.466h-22.001v31.86h-36.689l21.999,22h23.711c7.17,0,12.98-5.821,12.98-12.98V260.466"
		/>
</g>
<g>
</g>
<g>
</g>
<g>
</g>
<g>
</g>
<g>
</g>
<g>
</g>
<g>
</g>
<g>
</g>
<g>
</g>
<g>
</g>
<g>
</g>
<g>
</g>
<g>
</g>
<g>
</g>
<g>
</g>
</svg>
