<?xml version="1.0" encoding="iso-8859-1"?>
<!-- Generator: Adobe Illustrator 19.0.0, SVG Export Plug-In . SVG Version: 6.00 Build 0)  -->
<svg version="1.1" id="Layer_1" xmlns="http://www.w3.org/2000/svg" xmlns:xlink="http://www.w3.org/1999/xlink" x="0px" y="0px"
	 viewBox="0 0 512 512" style="enable-background:new 0 0 512 512;" xml:space="preserve">
<circle style="fill:#386895;" cx="256" cy="256" r="256"/>
<path style="fill:#273B7A;" d="M358.328,137.082L137.442,358.688l151.243,151.243c115.247-14.688,206.558-106,221.246-221.246
	L358.328,137.082z"/>
<path style="fill:#FFEDB5;" d="M207.748,428.994L83.006,304.252c-4.432-4.432-4.432-11.617,0-16.05L288.201,83.006
	c4.432-4.432,11.617-4.432,16.05,0l124.742,124.742c4.432,4.432,4.432,11.617,0,16.05L223.799,428.994
	C219.367,433.426,212.18,433.426,207.748,428.994z"/>
<path style="fill:#FEE187;" d="M428.994,207.748l-60.814-60.814L142.758,364.004l64.99,64.99c4.432,4.432,11.617,4.432,16.05,0
	l205.197-205.195C433.426,219.367,433.426,212.18,428.994,207.748z"/>
<rect x="156.445" y="170.665" transform="matrix(-0.7071 -0.7071 0.7071 -0.7071 256.0016 618.0348)" style="fill:#E03A00;" width="199.109" height="170.665"/>
<polygon style="fill:#BA3006;" points="386.736,266.057 316.947,196.268 193.991,314.67 266.057,386.736 "/>
<rect x="199.112" y="227.554" transform="matrix(-0.7071 -0.7071 0.7071 -0.7071 256.0016 618.0348)" style="fill:#FEE187;" width="113.777" height="56.888"/>
<polygon style="fill:#FFC61B;" points="234.977,275.203 276.113,316.34 316.34,276.113 275.961,235.735 "/>
<g>
</g>
<g>
</g>
<g>
</g>
<g>
</g>
<g>
</g>
<g>
</g>
<g>
</g>
<g>
</g>
<g>
</g>
<g>
</g>
<g>
</g>
<g>
</g>
<g>
</g>
<g>
</g>
<g>
</g>
</svg>
