<?xml version="1.0" encoding="iso-8859-1"?>
<!-- Generator: Adobe Illustrator 19.0.0, SVG Export Plug-In . SVG Version: 6.00 Build 0)  -->
<svg version="1.1" id="Layer_1" xmlns="http://www.w3.org/2000/svg" xmlns:xlink="http://www.w3.org/1999/xlink" x="0px" y="0px"
	 viewBox="0 0 512.002 512.002" style="enable-background:new 0 0 512.002 512.002;" xml:space="preserve">
<path style="fill:#424EDE;" d="M38.197,294.198c0,120.097,97.706,217.804,217.802,217.804c120.098,0,217.806-97.707,217.806-217.804
	c0-58.176-22.657-112.872-63.795-154.01c-9.114-9.114-23.894-9.114-33.01,0c-9.116,9.116-9.116,23.894,0,33.011
	c32.32,32.32,50.122,75.293,50.122,120.999c0,94.356-76.765,171.121-171.123,171.121c-94.356,0-171.119-76.765-171.119-171.121
	c0-52.381,23.665-99.334,60.857-130.748l10.974,55.171c1.842,9.259,9.08,16.498,18.339,18.34c1.522,0.302,3.047,0.45,4.558,0.45
	c7.693,0,15.021-3.814,19.405-10.375l76.313-114.21l0.061-0.092l0.022-0.03c0.047-0.072,0.086-0.148,0.131-0.219
	c0.37-0.568,0.725-1.145,1.043-1.74c0.053-0.098,0.095-0.202,0.146-0.302c0.3-0.58,0.587-1.169,0.836-1.769
	c0.042-0.106,0.076-0.219,0.118-0.327c0.238-0.599,0.462-1.204,0.65-1.821c0.042-0.14,0.07-0.286,0.109-0.426
	c0.167-0.588,0.325-1.178,0.445-1.777c0.054-0.277,0.084-0.562,0.129-0.843c0.076-0.47,0.162-0.938,0.21-1.411
	c0.076-0.766,0.115-1.541,0.117-2.326c0-0.002,0-0.003,0-0.006c0-0.087-0.012-0.171-0.014-0.26
	c-0.006-0.692-0.036-1.379-0.103-2.056c-0.053-0.534-0.146-1.064-0.237-1.595c-0.036-0.215-0.051-0.429-0.095-0.644
	c-0.003-0.009-0.006-0.02-0.008-0.031c-0.139-0.686-0.311-1.362-0.509-2.028c-0.019-0.064-0.031-0.131-0.048-0.195
	c-0.215-0.7-0.462-1.385-0.739-2.057c-0.014-0.033-0.023-0.065-0.036-0.096c-0.265-0.641-0.568-1.265-0.887-1.877
	c-0.033-0.062-0.061-0.129-0.093-0.193c-0.296-0.551-0.622-1.08-0.962-1.604c-0.075-0.117-0.138-0.24-0.216-0.356
	c-0.305-0.457-0.646-0.892-0.983-1.327c-0.129-0.165-0.243-0.342-0.377-0.504c-0.333-0.406-0.696-0.786-1.058-1.169
	c-0.159-0.168-0.303-0.35-0.467-0.514c-0.534-0.532-1.091-1.039-1.676-1.522c-0.101-0.082-0.212-0.152-0.313-0.233
	c-0.495-0.394-1.001-0.78-1.528-1.134c-0.008-0.005-0.016-0.011-0.023-0.017L154.638,3.934c-7.851-5.246-18.087-5.246-25.937,0
	c-7.849,5.246-11.767,14.702-9.925,23.961l16.879,84.86C76.961,151.816,38.197,218.561,38.197,294.198z"/>
<g>
</g>
<g>
</g>
<g>
</g>
<g>
</g>
<g>
</g>
<g>
</g>
<g>
</g>
<g>
</g>
<g>
</g>
<g>
</g>
<g>
</g>
<g>
</g>
<g>
</g>
<g>
</g>
<g>
</g>
</svg>
