<?xml version="1.0" encoding="iso-8859-1"?>
<!-- Generator: Adobe Illustrator 19.0.0, SVG Export Plug-In . SVG Version: 6.00 Build 0)  -->
<svg version="1.1" id="Layer_1" xmlns="http://www.w3.org/2000/svg" xmlns:xlink="http://www.w3.org/1999/xlink" x="0px" y="0px"
	 viewBox="0 0 512 512" style="enable-background:new 0 0 512 512;" xml:space="preserve">
<path style="fill:#424EDE;" d="M135.001,140.186c-9.114-9.114-23.894-9.114-33.01,0c-41.14,41.14-63.795,95.834-63.795,154.01
	C38.196,414.293,135.904,512,256.002,512c120.097,0,217.802-97.707,217.802-217.804c0-75.637-38.762-142.381-97.458-181.443
	l16.881-84.859c1.842-9.259-2.076-18.717-9.925-23.961c-7.851-5.246-18.087-5.246-25.937,0L243.033,80.328
	c-0.008,0.005-0.016,0.011-0.023,0.017c-0.529,0.355-1.033,0.741-1.528,1.134c-0.101,0.081-0.213,0.151-0.313,0.233
	c-0.585,0.482-1.142,0.99-1.676,1.522c-0.162,0.163-0.308,0.345-0.467,0.514c-0.361,0.383-0.725,0.762-1.058,1.169
	c-0.134,0.162-0.247,0.338-0.377,0.504c-0.338,0.434-0.678,0.87-0.983,1.327c-0.078,0.115-0.142,0.24-0.216,0.356
	c-0.339,0.524-0.668,1.055-0.962,1.604c-0.033,0.064-0.061,0.129-0.095,0.193c-0.319,0.613-0.622,1.236-0.887,1.877
	c-0.014,0.031-0.023,0.065-0.036,0.096c-0.277,0.672-0.524,1.357-0.739,2.057c-0.019,0.064-0.031,0.129-0.048,0.195
	c-0.198,0.666-0.37,1.341-0.509,2.028c-0.002,0.011-0.005,0.02-0.008,0.031c-0.042,0.213-0.058,0.429-0.095,0.644
	c-0.092,0.531-0.184,1.063-0.237,1.595c-0.067,0.677-0.098,1.363-0.103,2.056c-0.002,0.087-0.014,0.171-0.014,0.26
	c0,0.003,0,0.005,0,0.006c0.002,0.784,0.04,1.561,0.117,2.326c0.048,0.475,0.134,0.943,0.21,1.411
	c0.045,0.28,0.075,0.566,0.129,0.843c0.12,0.599,0.279,1.189,0.445,1.777c0.039,0.14,0.067,0.288,0.109,0.426
	c0.188,0.616,0.412,1.222,0.65,1.821c0.042,0.107,0.076,0.221,0.118,0.327c0.249,0.601,0.535,1.189,0.836,1.769
	c0.051,0.1,0.093,0.204,0.146,0.302c0.317,0.594,0.672,1.172,1.043,1.74c0.045,0.072,0.084,0.148,0.131,0.219l0.022,0.03
	l0.061,0.092l76.313,114.21c4.384,6.562,11.71,10.374,19.405,10.374c1.511,0,3.038-0.148,4.558-0.45
	c9.259-1.842,16.498-9.08,18.339-18.34l10.974-55.171c37.192,31.415,60.857,78.365,60.857,130.748
	c0,94.356-76.764,171.121-171.119,171.121c-94.357,0-171.123-76.765-171.123-171.121c0-45.707,17.8-88.679,50.122-120.999
	C144.118,164.082,144.118,149.303,135.001,140.186z"/>
<g>
</g>
<g>
</g>
<g>
</g>
<g>
</g>
<g>
</g>
<g>
</g>
<g>
</g>
<g>
</g>
<g>
</g>
<g>
</g>
<g>
</g>
<g>
</g>
<g>
</g>
<g>
</g>
<g>
</g>
</svg>
