<?xml version="1.0" encoding="iso-8859-1"?>
<!-- Generator: Adobe Illustrator 19.0.0, SVG Export Plug-In . SVG Version: 6.00 Build 0)  -->
<svg version="1.1" id="Layer_1" xmlns="http://www.w3.org/2000/svg" xmlns:xlink="http://www.w3.org/1999/xlink" x="0px" y="0px"
	 viewBox="0 0 408.759 408.759" style="enable-background:new 0 0 408.759 408.759;" xml:space="preserve">
<g>
	<path style="fill:#FFBE00;" d="M204.383,408.759c-58.121,0-113.674-24.869-152.417-68.227
		C18.46,303.057,0.005,254.703,0.005,204.379C0.005,91.683,91.688,0,204.383,0c50.319,0,98.674,18.453,136.164,51.964
		c43.346,38.763,68.207,94.314,68.207,152.415C408.755,317.074,317.074,408.759,204.383,408.759"/>
	<path style="fill:#F4502A;" d="M377.755,204.377c0,6.919-0.399,13.739-1.198,20.44c-0.292,2.499-0.641,4.99-1.042,7.458
		c-1.318,8.21-3.23,16.221-5.669,24.001c-20.39,65.089-78.11,113.66-148.081,120.61c-5.719,0.58-11.51,0.87-17.38,0.87
		c-8.36,0-16.588-0.591-24.628-1.74c-3.461-0.491-6.89-1.08-10.28-1.78c-37.191-7.601-70.041-27.11-94.39-54.361
		c-0.26-0.29-0.521-0.589-0.79-0.879c-26.95-30.562-43.29-70.679-43.29-114.62c0-95.751,77.621-173.381,173.379-173.381
		c43.951,0,84.071,16.35,114.631,43.29c0.29,0.27,0.589,0.53,0.879,0.791C355.406,106.836,377.755,152.987,377.755,204.377"/>
	<path style="fill:#C29100;" d="M88.738,333.547c0.029,0.026,0.059,0.053,0.088,0.079C88.797,333.599,88.768,333.574,88.738,333.547
		 M74.326,319.029c4.489,5.086,9.275,9.911,14.326,14.44c-4.768-4.279-9.297-8.817-13.565-13.594
		C74.836,319.597,74.585,319.309,74.326,319.029 M68.941,312.623c0.008,0.009,0.018,0.022,0.025,0.031
		C68.957,312.643,68.95,312.635,68.941,312.623 M68.552,312.136c0.037,0.047,0.073,0.092,0.11,0.139
		C68.625,312.228,68.59,312.183,68.552,312.136 M68.214,311.708c0.073,0.092,0.145,0.184,0.218,0.276
		C68.359,311.893,68.286,311.8,68.214,311.708 M67.885,311.29c0.082,0.104,0.162,0.207,0.244,0.311
		C68.047,311.497,67.966,311.394,67.885,311.29 M67.598,310.923c0.092,0.119,0.181,0.231,0.274,0.35
		C67.779,311.156,67.69,311.041,67.598,310.923 M125.72,49.827C69.497,78.495,31.004,136.934,31.004,204.37
		c0,40.165,13.654,77.141,36.577,106.532c-22.925-29.397-36.575-66.363-36.575-106.524C31.006,136.947,69.505,78.5,125.72,49.827"/>
	<path style="fill:#BA3D20;" d="M204.383,30.999c-28.318,0-55.056,6.792-78.663,18.828c-56.215,28.673-94.715,87.12-94.715,154.55
		c0,40.162,13.649,77.127,36.575,106.524c0.006,0.007,0.012,0.015,0.017,0.022c0.092,0.118,0.181,0.232,0.274,0.35
		c0.004,0.004,0.01,0.012,0.013,0.017c0.081,0.104,0.162,0.207,0.244,0.311c0.028,0.035,0.057,0.072,0.085,0.108
		c0.073,0.092,0.146,0.184,0.218,0.276c0.039,0.049,0.081,0.102,0.12,0.151c0.037,0.047,0.073,0.092,0.11,0.139
		c0.094,0.118,0.184,0.231,0.278,0.349c0.009,0.012,0.016,0.02,0.025,0.031c1.737,2.169,3.523,4.293,5.36,6.375
		c0.259,0.28,0.51,0.567,0.76,0.847c4.268,4.776,8.797,9.315,13.565,13.594c0.029,0.026,0.057,0.051,0.086,0.077
		c0.03,0.027,0.058,0.052,0.088,0.079c1.198,1.071,2.409,2.125,3.637,3.163c-25.53-30.2-40.919-69.239-40.919-111.879
		c0-95.751,77.619-173.371,173.379-173.371c42.631,0,81.68,15.39,111.87,40.921C305.004,54.869,257.483,30.999,204.383,30.999"/>
	<path style="fill:#BA3D20;" d="M291.376,139.636v27.239v146.761h-174l62.381,62.38c8.04,1.149,16.269,1.74,24.628,1.74
		c5.87,0,11.661-0.29,17.38-0.87c69.97-6.951,127.69-55.521,148.081-120.61c2.439-7.78,4.351-15.791,5.669-24.001
		c0.401-2.469,0.75-4.96,1.042-7.458L291.376,139.636 M204.376,79.787l-37.209,37.309l34.99,34.98l2.999,20.88l-1.529-0.36
		l-32.96-32.96v22h-31.289v129.999h101.5h28.499V161.637h-31.28v-22h26.03h0.109L204.376,79.787"/>
	<polygon style="fill:#FFFFFF;" points="204.379,79.781 241.591,117.093 215.378,117.093 215.378,244.136 193.378,244.136 
		193.378,117.093 167.167,117.093 	"/>
	<polyline style="fill:#1CA4BA;" points="291.376,139.636 291.376,313.636 117.376,313.636 117.376,139.636 170.666,139.636 
		170.666,161.637 139.377,161.637 139.377,291.635 269.375,291.635 269.375,161.637 238.095,161.637 238.095,139.636 
		291.376,139.636 	"/>
	<polyline style="fill:#157D8E;" points="264.125,139.636 238.095,139.636 238.095,161.637 269.375,161.637 269.375,291.635 
		240.876,291.635 262.877,313.636 291.376,313.636 291.376,166.875 264.125,139.636 	"/>
</g>
<g>
</g>
<g>
</g>
<g>
</g>
<g>
</g>
<g>
</g>
<g>
</g>
<g>
</g>
<g>
</g>
<g>
</g>
<g>
</g>
<g>
</g>
<g>
</g>
<g>
</g>
<g>
</g>
<g>
</g>
</svg>
